<svg xmlns="http://www.w3.org/2000/svg" viewBox="0 0 100 100" role="img" aria-label="Greater Manchester Vis falcon emblem (placeholder)">
  <defs>
    <linearGradient id="gmGold" x1="0" y1="0" x2="1" y2="1">
      <stop offset="0" stop-color="#F7DC97"></stop>
      <stop offset="0.5" stop-color="#DCA93A"></stop>
      <stop offset="1" stop-color="#9A6B16"></stop>
    </linearGradient>
  </defs>
  <g fill="url(#gmGold)">
    
    <path d="M50 18c2.6 0 4.8 1.7 5.6 4.1l1.9 5.7 7.2-3.1c1-.4 2 .6 1.6 1.6l-3.1 7.4 4.8 1.4c2.6.8 4.4 3.1 4.4 5.8 0 1-.9 1.7-1.8 1.4l-9.7-3 .2 2.2c4.9 1.7 9 5.2 11.4 9.9.5 1-.5 2.1-1.5 1.7-4-1.7-7.8-2.8-11.4-3.1l3 4.6c.6.9-.2 2.1-1.3 1.8l-6.2-1.7v17.7c0 1.1-.9 2-2 2h-2.2c-1.1 0-2-.9-2-2V59.9l-6.2 1.7c-1.1.3-1.9-.9-1.3-1.8l3-4.6c-3.6.3-7.4 1.4-11.4 3.1-1 .4-2-.7-1.5-1.7 2.4-4.7 6.5-8.2 11.4-9.9l.2-2.2-9.7 3c-.9.3-1.8-.4-1.8-1.4 0-2.7 1.8-5 4.4-5.8l4.8-1.4-3.1-7.4c-.4-1 .6-2 1.6-1.6l7.2 3.1 1.9-5.7c.8-2.4 3-4.1 5.6-4.1z"></path>
  </g>
</svg>