<svg xmlns="http://www.w3.org/2000/svg" viewBox="499 311 1156 1338" role="img" aria-label="Greater Manchester Falcons emblem">
  <defs><linearGradient id="bg" x1="0" y1="0" x2="0.9" y2="1"><stop offset="0" stop-color="#FFF3A6"></stop><stop offset="0.45" stop-color="#F9DF7B"></stop><stop offset="1" stop-color="#B57E10"></stop></linearGradient></defs>
  <path fill="url(#bg)" fill-rule="evenodd" d="M986.69 585.66 C1015.35 711.42 1082.02 794.00 1115.58 830.55 L1115.58 830.55 C1087.23 815.47 1047.35 789.96 1008.95 748.53 L1008.95 748.53 C960.50 696.26 936.47 642.43 924.59 609.10 L924.59 609.10 C915.84 687.96 918.71 790.15 982.00 861.01 L982.00 861.01 C1049.67 936.79 1135.35 919.55 1229.23 991.07 L1229.23 991.07 C1282.98 1032.02 1344.97 1106.30 1376.66 1252.62 L1376.66 1252.62 C1376.56 1252.60 1376.45 1252.59 1376.35 1252.57 L1376.35 1252.57 C1366.67 1251.23 1356.99 1249.89 1347.31 1248.54 L1347.31 1248.54 C1346.76 1248.47 1346.21 1248.41 1345.65 1248.33 L1345.65 1248.33 C1341.75 1222.41 1333.38 1185.07 1313.60 1144.57 L1313.60 1144.57 C1299.26 1115.22 1249.11 1023.17 1054.65 927.80 L1054.65 927.80 C915.09 859.36 882.09 877.91 767.58 821.17 L767.58 821.17 C655.47 765.63 577.66 693.62 529.72 641.90 L529.72 641.90 C544.16 686.63 571.22 750.60 623.45 814.14 L623.45 814.14 C720.08 931.70 842.19 974.06 894.12 988.73 L894.12 988.73 C860.20 989.09 812.99 985.85 759.37 969.98 L759.37 969.98 C691.57 949.91 642.03 918.07 611.74 894.99 L611.74 894.99 C625.37 925.02 652.98 975.20 705.48 1020.37 L705.48 1020.37 C743.24 1052.86 782.36 1072.84 815.75 1085.24 L815.75 1085.24 C769.62 1072.99 723.49 1060.74 677.35 1048.49 L677.35 1048.49 C723.28 1120.21 772.51 1151.47 807.41 1166.83 L807.41 1166.83 C876.79 1197.37 941.51 1187.99 1010.03 1178.61 L1010.03 1178.61 C1078.45 1169.24 1150.67 1159.87 1235.09 1190.27 L1235.09 1190.27 C1281.17 1206.85 1316.03 1229.94 1338.77 1247.50 L1338.77 1247.50 C1331.93 1246.76 1325.10 1246.26 1318.26 1246.02 L1318.26 1246.02 C1310.74 1245.64 1303.25 1245.56 1295.77 1245.74 L1295.77 1245.74 C1274.37 1242.00 1235.43 1238.13 1190.15 1251.22 L1190.15 1251.22 C1169.41 1257.21 1117.23 1273.06 1080.42 1321.50 L1080.42 1321.50 C1025.12 1394.28 1047.79 1483.72 1051.13 1496.08 L1051.13 1496.08 C1055.43 1471.26 1067.21 1419.80 1102.41 1371.31 L1102.41 1371.31 C1102.13 1374.04 1101.96 1376.81 1101.88 1379.62 L1101.88 1379.62 C1101.23 1395.76 1103.97 1409.96 1110.11 1422.22 L1110.11 1422.22 C1116.23 1434.49 1124.63 1445.21 1135.28 1454.41 L1135.28 1454.41 C1145.93 1463.61 1158.43 1471.28 1172.80 1477.40 L1172.80 1477.40 C1187.15 1483.54 1202.24 1488.38 1218.06 1491.93 L1218.06 1491.93 C1213.21 1504.51 1207.72 1517.10 1201.60 1529.68 L1201.60 1529.68 C1195.46 1542.27 1188.29 1553.57 1180.06 1563.57 L1180.06 1563.57 C1171.83 1573.58 1162.39 1581.65 1151.74 1587.77 L1151.74 1587.77 C1141.09 1593.90 1128.82 1596.97 1114.95 1596.97 L1114.95 1596.97 C1108.81 1596.97 1102.60 1596.08 1096.31 1594.31 L1096.31 1594.31 C1090.02 1592.53 1084.61 1589.38 1080.10 1584.87 L1080.10 1584.87 C1086.87 1582.29 1092.52 1577.93 1097.04 1571.80 L1097.04 1571.80 C1101.55 1565.67 1103.82 1558.89 1103.82 1551.47 L1103.82 1551.47 C1103.82 1541.47 1100.34 1533.00 1093.41 1526.05 L1093.41 1526.05 C1086.46 1519.12 1077.99 1515.65 1067.99 1515.65 L1067.99 1515.65 C1055.72 1515.65 1046.13 1519.84 1039.19 1528.23 L1039.19 1528.23 C1032.25 1536.63 1028.78 1546.47 1028.78 1557.76 L1028.78 1557.76 C1028.78 1564.86 1030.39 1572.04 1033.62 1579.30 L1033.62 1579.30 C1036.85 1586.56 1041.93 1593.17 1048.87 1599.15 L1048.87 1599.15 C1055.81 1605.12 1064.68 1609.96 1075.49 1613.67 L1075.49 1613.67 C1086.30 1617.38 1099.46 1619.24 1114.95 1619.24 L1114.95 1619.24 C1137.22 1619.24 1156.82 1616.42 1173.76 1610.78 L1173.76 1610.78 C1190.71 1605.13 1205.71 1597.08 1218.78 1586.61 L1218.78 1586.61 C1231.85 1576.14 1243.23 1563.65 1252.91 1549.15 L1252.91 1549.15 C1262.59 1534.65 1271.31 1518.37 1279.05 1500.32 L1279.05 1500.32 C1290.02 1501.29 1301.72 1501.53 1314.15 1501.05 L1314.15 1501.05 C1326.57 1500.56 1337.94 1498.64 1348.27 1495.25 L1348.27 1495.25 C1358.60 1491.87 1367.23 1486.39 1374.17 1478.81 L1374.17 1478.81 C1381.11 1471.24 1384.90 1460.85 1385.55 1447.63 L1385.55 1447.63 C1386.19 1437.64 1383.61 1430.71 1377.80 1426.84 L1377.80 1426.84 C1374.25 1424.27 1370.70 1422.90 1367.15 1422.73 L1367.15 1422.73 C1363.60 1422.58 1360.53 1424.27 1357.95 1427.81 L1357.95 1427.81 C1356.34 1433.94 1353.27 1439.49 1348.76 1444.49 L1348.76 1444.49 C1344.23 1449.48 1338.83 1453.91 1332.54 1457.78 L1332.54 1457.78 C1326.25 1461.65 1319.39 1464.87 1311.97 1467.45 L1311.97 1467.45 C1304.54 1470.03 1297.12 1471.97 1289.70 1473.25 L1289.70 1473.25 C1291.64 1467.45 1294.13 1459.71 1297.20 1450.05 L1297.20 1450.05 C1300.27 1440.38 1303.57 1429.90 1307.13 1418.63 L1307.13 1418.63 C1310.67 1407.35 1314.55 1395.83 1318.74 1384.06 L1318.74 1384.06 C1322.93 1372.30 1327.38 1361.34 1332.06 1351.19 L1332.06 1351.19 C1336.73 1341.04 1341.50 1332.42 1346.34 1325.33 L1346.34 1325.33 C1351.18 1318.24 1356.18 1313.57 1361.34 1311.31 L1361.34 1311.31 C1365.53 1307.44 1366.58 1303.25 1364.49 1298.74 L1364.49 1298.74 C1362.39 1294.23 1358.60 1292.14 1353.11 1292.46 L1353.11 1292.46 C1332.78 1301.15 1316.08 1311.63 1303.01 1323.88 L1303.01 1323.88 C1289.94 1336.13 1278.97 1349.66 1270.10 1364.48 L1270.10 1364.48 C1261.21 1379.31 1253.55 1395.42 1247.10 1412.83 L1247.10 1412.83 C1240.64 1430.23 1234.03 1448.28 1227.25 1466.97 L1227.25 1466.97 C1218.22 1463.74 1209.50 1459.55 1201.11 1454.39 L1201.11 1454.39 C1192.72 1449.24 1185.30 1443.04 1178.85 1435.78 L1178.85 1435.78 C1172.39 1428.54 1167.23 1420.15 1163.36 1410.65 L1163.36 1410.65 C1159.48 1401.15 1157.55 1390.43 1157.55 1378.50 L1157.55 1378.50 C1157.55 1364.64 1160.53 1350.87 1166.50 1337.17 L1166.50 1337.17 C1172.47 1323.48 1181.59 1311.31 1193.85 1300.67 L1193.85 1300.67 C1203.03 1292.71 1213.96 1286.07 1226.66 1280.73 L1226.66 1280.73 C1262.63 1269.46 1307.36 1270.17 1325.40 1270.89 L1325.40 1270.89 C1330.60 1271.10 1333.59 1271.31 1333.49 1271.22 L1333.49 1271.22 C1339.02 1272.14 1344.51 1273.26 1349.97 1274.58 L1349.97 1274.58 C1364.65 1278.13 1379.17 1281.92 1393.54 1285.95 L1393.54 1285.95 C1407.89 1289.99 1422.34 1293.62 1436.86 1296.84 L1436.86 1296.84 C1451.38 1300.07 1466.06 1301.53 1480.91 1301.20 L1480.91 1301.20 C1488.65 1300.88 1496.23 1299.99 1503.66 1298.52 L1503.66 1298.52 C1511.08 1297.06 1518.18 1294.70 1524.96 1291.45 L1524.96 1291.45 C1529.80 1289.18 1533.35 1285.93 1535.61 1281.70 L1535.61 1281.70 C1537.86 1277.48 1538.59 1272.77 1537.79 1267.56 L1537.79 1267.56 C1536.98 1262.36 1534.56 1256.76 1530.53 1250.74 L1530.53 1250.74 C1526.49 1244.73 1520.44 1238.80 1512.37 1232.94 L1512.37 1232.94 C1504.30 1242.82 1494.06 1249.56 1481.64 1253.18 L1481.64 1253.18 C1469.21 1256.79 1454.12 1258.44 1436.38 1258.12 L1436.38 1258.12 C1425.72 1258.12 1415.48 1257.54 1405.64 1256.36 L1405.64 1256.36 C1395.95 1255.19 1386.35 1253.96 1376.82 1252.64 L1376.82 1252.64 C1375.74 1231.53 1374.66 1210.43 1373.58 1189.33 L1373.58 1189.33 C1406.63 1179.40 1439.82 1159.98 1463.17 1161.59 L1463.17 1161.59 C1487.08 1163.23 1505.93 1169.70 1517.93 1174.87 L1517.93 1174.87 C1522.04 1179.05 1530.65 1186.69 1544.01 1191.17 L1544.01 1191.17 C1557.15 1195.58 1568.46 1194.77 1574.24 1193.95 L1574.24 1193.95 C1570.82 1193.57 1554.00 1191.33 1541.59 1176.31 L1541.59 1176.31 C1529.00 1161.07 1530.16 1143.85 1530.46 1140.49 L1530.46 1140.49 C1563.94 1132.04 1592.82 1137.38 1602.31 1153.86 L1602.31 1153.86 C1604.08 1156.92 1605.61 1161.13 1605.80 1166.89 L1605.80 1166.89 C1622.98 1159.00 1625.10 1149.82 1625.48 1147.66 L1625.48 1147.66 C1628.22 1132.19 1607.15 1110.47 1569.44 1100.58 L1569.44 1100.58 C1569.16 1099.22 1568.68 1097.18 1567.89 1094.79 L1567.89 1094.79 C1553.53 1051.30 1484.83 1037.81 1440.28 1029.61 L1440.28 1029.61 C1409.21 1023.88 1398.46 1016.17 1361.88 1017.93 L1361.88 1017.93 C1346.29 984.29 1321.76 935.40 1286.65 879.76 L1286.65 879.76 C1192.09 729.90 1121.76 691.04 1059.33 575.12 L1059.33 575.12 C1032.80 525.85 1000.68 449.64 987.86 341.94 L987.86 341.94 C976.68 389.18 962.24 478.43 986.69 585.66 M1518.52 1105.89 C1511.64 1105.63 1507.04 1102.10 1505.61 1100.92 L1505.61 1100.92 C1504.37 1099.33 1502.97 1097.22 1501.81 1094.57 L1501.81 1094.57 C1499.50 1089.28 1499.27 1084.45 1499.38 1081.54 L1499.38 1081.54 C1501.96 1081.65 1505.67 1082.15 1509.53 1084.09 L1509.53 1084.09 C1513.34 1085.99 1515.44 1088.36 1517.52 1090.37 L1517.52 1090.37 C1520.67 1093.40 1525.55 1097.35 1532.99 1100.96 L1532.99 1100.96 C1531.73 1102.00 1526.71 1105.90 1519.31 1105.90 L1519.31 1105.90 C1519.05 1105.90 1518.79 1105.90 1518.52 1105.89"></path>
</svg>