<svg xmlns="http://www.w3.org/2000/svg" viewBox="442 301 2105 1897" role="img" aria-label="Greater Manchester Falcons emblem">
  <defs><linearGradient id="bg" x1="0" y1="0" x2="0.9" y2="1"><stop offset="0" stop-color="#FFF3A6"></stop><stop offset="0.45" stop-color="#F9DF7B"></stop><stop offset="1" stop-color="#B57E10"></stop></linearGradient></defs>
  <path fill="url(#bg)" fill-rule="evenodd" d="M986.69 585.66 C1015.35 711.42 1082.02 794.00 1115.58 830.55 L1115.58 830.55 C1087.23 815.47 1047.35 789.96 1008.95 748.53 L1008.95 748.53 C960.50 696.26 936.47 642.43 924.59 609.10 L924.59 609.10 C915.84 687.96 918.71 790.15 982.00 861.01 L982.00 861.01 C1049.67 936.79 1135.35 919.55 1229.23 991.07 L1229.23 991.07 C1282.98 1032.02 1344.97 1106.30 1376.66 1252.62 L1376.66 1252.62 C1376.56 1252.60 1376.45 1252.59 1376.35 1252.57 L1376.35 1252.57 C1366.67 1251.23 1356.99 1249.89 1347.31 1248.54 L1347.31 1248.54 C1346.76 1248.47 1346.21 1248.41 1345.65 1248.33 L1345.65 1248.33 C1341.75 1222.41 1333.38 1185.07 1313.60 1144.57 L1313.60 1144.57 C1299.26 1115.22 1249.11 1023.17 1054.65 927.80 L1054.65 927.80 C915.09 859.36 882.09 877.91 767.58 821.17 L767.58 821.17 C655.47 765.63 577.66 693.62 529.72 641.90 L529.72 641.90 C544.16 686.63 571.22 750.60 623.45 814.14 L623.45 814.14 C720.08 931.70 842.19 974.06 894.12 988.73 L894.12 988.73 C860.20 989.09 812.99 985.85 759.37 969.98 L759.37 969.98 C691.57 949.91 642.03 918.07 611.74 894.99 L611.74 894.99 C625.37 925.02 652.98 975.20 705.48 1020.37 L705.48 1020.37 C743.24 1052.86 782.36 1072.84 815.75 1085.24 L815.75 1085.24 C769.62 1072.99 723.49 1060.74 677.35 1048.49 L677.35 1048.49 C723.28 1120.21 772.51 1151.47 807.41 1166.83 L807.41 1166.83 C876.79 1197.37 941.51 1187.99 1010.03 1178.61 L1010.03 1178.61 C1078.45 1169.24 1150.67 1159.87 1235.09 1190.27 L1235.09 1190.27 C1281.17 1206.85 1316.03 1229.94 1338.77 1247.50 L1338.77 1247.50 C1331.93 1246.76 1325.10 1246.26 1318.26 1246.02 L1318.26 1246.02 C1310.74 1245.64 1303.25 1245.56 1295.77 1245.74 L1295.77 1245.74 C1274.37 1242.00 1235.43 1238.13 1190.15 1251.22 L1190.15 1251.22 C1169.41 1257.21 1117.23 1273.06 1080.42 1321.50 L1080.42 1321.50 C1025.12 1394.28 1047.79 1483.72 1051.13 1496.08 L1051.13 1496.08 C1055.43 1471.26 1067.21 1419.80 1102.41 1371.31 L1102.41 1371.31 C1102.13 1374.04 1101.96 1376.81 1101.88 1379.62 L1101.88 1379.62 C1101.23 1395.76 1103.97 1409.96 1110.11 1422.22 L1110.11 1422.22 C1116.23 1434.49 1124.63 1445.21 1135.28 1454.41 L1135.28 1454.41 C1145.93 1463.61 1158.43 1471.28 1172.80 1477.40 L1172.80 1477.40 C1187.15 1483.54 1202.24 1488.38 1218.06 1491.93 L1218.06 1491.93 C1213.21 1504.51 1207.72 1517.10 1201.60 1529.68 L1201.60 1529.68 C1195.46 1542.27 1188.29 1553.57 1180.06 1563.57 L1180.06 1563.57 C1171.83 1573.58 1162.39 1581.65 1151.74 1587.77 L1151.74 1587.77 C1141.09 1593.90 1128.82 1596.97 1114.95 1596.97 L1114.95 1596.97 C1108.81 1596.97 1102.60 1596.08 1096.31 1594.31 L1096.31 1594.31 C1090.02 1592.53 1084.61 1589.38 1080.10 1584.87 L1080.10 1584.87 C1086.87 1582.29 1092.52 1577.93 1097.04 1571.80 L1097.04 1571.80 C1101.55 1565.67 1103.82 1558.89 1103.82 1551.47 L1103.82 1551.47 C1103.82 1541.47 1100.34 1533.00 1093.41 1526.05 L1093.41 1526.05 C1086.46 1519.12 1077.99 1515.65 1067.99 1515.65 L1067.99 1515.65 C1055.72 1515.65 1046.13 1519.84 1039.19 1528.23 L1039.19 1528.23 C1032.25 1536.63 1028.78 1546.47 1028.78 1557.76 L1028.78 1557.76 C1028.78 1564.86 1030.39 1572.04 1033.62 1579.30 L1033.62 1579.30 C1036.85 1586.56 1041.93 1593.17 1048.87 1599.15 L1048.87 1599.15 C1055.81 1605.12 1064.68 1609.96 1075.49 1613.67 L1075.49 1613.67 C1086.30 1617.38 1099.46 1619.24 1114.95 1619.24 L1114.95 1619.24 C1137.22 1619.24 1156.82 1616.42 1173.76 1610.78 L1173.76 1610.78 C1190.71 1605.13 1205.71 1597.08 1218.78 1586.61 L1218.78 1586.61 C1231.85 1576.14 1243.23 1563.65 1252.91 1549.15 L1252.91 1549.15 C1262.59 1534.65 1271.31 1518.37 1279.05 1500.32 L1279.05 1500.32 C1290.02 1501.29 1301.72 1501.53 1314.15 1501.05 L1314.15 1501.05 C1326.57 1500.56 1337.94 1498.64 1348.27 1495.25 L1348.27 1495.25 C1358.60 1491.87 1367.23 1486.39 1374.17 1478.81 L1374.17 1478.81 C1381.11 1471.24 1384.90 1460.85 1385.55 1447.63 L1385.55 1447.63 C1386.19 1437.64 1383.61 1430.71 1377.80 1426.84 L1377.80 1426.84 C1374.25 1424.27 1370.70 1422.90 1367.15 1422.73 L1367.15 1422.73 C1363.60 1422.58 1360.53 1424.27 1357.95 1427.81 L1357.95 1427.81 C1356.34 1433.94 1353.27 1439.49 1348.76 1444.49 L1348.76 1444.49 C1344.23 1449.48 1338.83 1453.91 1332.54 1457.78 L1332.54 1457.78 C1326.25 1461.65 1319.39 1464.87 1311.97 1467.45 L1311.97 1467.45 C1304.54 1470.03 1297.12 1471.97 1289.70 1473.25 L1289.70 1473.25 C1291.64 1467.45 1294.13 1459.71 1297.20 1450.05 L1297.20 1450.05 C1300.27 1440.38 1303.57 1429.90 1307.13 1418.63 L1307.13 1418.63 C1310.67 1407.35 1314.55 1395.83 1318.74 1384.06 L1318.74 1384.06 C1322.93 1372.30 1327.38 1361.34 1332.06 1351.19 L1332.06 1351.19 C1336.73 1341.04 1341.50 1332.42 1346.34 1325.33 L1346.34 1325.33 C1351.18 1318.24 1356.18 1313.57 1361.34 1311.31 L1361.34 1311.31 C1365.53 1307.44 1366.58 1303.25 1364.49 1298.74 L1364.49 1298.74 C1362.39 1294.23 1358.60 1292.14 1353.11 1292.46 L1353.11 1292.46 C1332.78 1301.15 1316.08 1311.63 1303.01 1323.88 L1303.01 1323.88 C1289.94 1336.13 1278.97 1349.66 1270.10 1364.48 L1270.10 1364.48 C1261.21 1379.31 1253.55 1395.42 1247.10 1412.83 L1247.10 1412.83 C1240.64 1430.23 1234.03 1448.28 1227.25 1466.97 L1227.25 1466.97 C1218.22 1463.74 1209.50 1459.55 1201.11 1454.39 L1201.11 1454.39 C1192.72 1449.24 1185.30 1443.04 1178.85 1435.78 L1178.85 1435.78 C1172.39 1428.54 1167.23 1420.15 1163.36 1410.65 L1163.36 1410.65 C1159.48 1401.15 1157.55 1390.43 1157.55 1378.50 L1157.55 1378.50 C1157.55 1364.64 1160.53 1350.87 1166.50 1337.17 L1166.50 1337.17 C1172.47 1323.48 1181.59 1311.31 1193.85 1300.67 L1193.85 1300.67 C1203.03 1292.71 1213.96 1286.07 1226.66 1280.73 L1226.66 1280.73 C1262.63 1269.46 1307.36 1270.17 1325.40 1270.89 L1325.40 1270.89 C1330.60 1271.10 1333.59 1271.31 1333.49 1271.22 L1333.49 1271.22 C1339.02 1272.14 1344.51 1273.26 1349.97 1274.58 L1349.97 1274.58 C1364.65 1278.13 1379.17 1281.92 1393.54 1285.95 L1393.54 1285.95 C1407.89 1289.99 1422.34 1293.62 1436.86 1296.84 L1436.86 1296.84 C1451.38 1300.07 1466.06 1301.53 1480.91 1301.20 L1480.91 1301.20 C1488.65 1300.88 1496.23 1299.99 1503.66 1298.52 L1503.66 1298.52 C1511.08 1297.06 1518.18 1294.70 1524.96 1291.45 L1524.96 1291.45 C1529.80 1289.18 1533.35 1285.93 1535.61 1281.70 L1535.61 1281.70 C1537.86 1277.48 1538.59 1272.77 1537.79 1267.56 L1537.79 1267.56 C1536.98 1262.36 1534.56 1256.76 1530.53 1250.74 L1530.53 1250.74 C1526.49 1244.73 1520.44 1238.80 1512.37 1232.94 L1512.37 1232.94 C1504.30 1242.82 1494.06 1249.56 1481.64 1253.18 L1481.64 1253.18 C1469.21 1256.79 1454.12 1258.44 1436.38 1258.12 L1436.38 1258.12 C1425.72 1258.12 1415.48 1257.54 1405.64 1256.36 L1405.64 1256.36 C1395.95 1255.19 1386.35 1253.96 1376.82 1252.64 L1376.82 1252.64 C1375.74 1231.53 1374.66 1210.43 1373.58 1189.33 L1373.58 1189.33 C1406.63 1179.40 1439.82 1159.98 1463.17 1161.59 L1463.17 1161.59 C1487.08 1163.23 1505.93 1169.70 1517.93 1174.87 L1517.93 1174.87 C1522.04 1179.05 1530.65 1186.69 1544.01 1191.17 L1544.01 1191.17 C1557.15 1195.58 1568.46 1194.77 1574.24 1193.95 L1574.24 1193.95 C1570.82 1193.57 1554.00 1191.33 1541.59 1176.31 L1541.59 1176.31 C1529.00 1161.07 1530.16 1143.85 1530.46 1140.49 L1530.46 1140.49 C1563.94 1132.04 1592.82 1137.38 1602.31 1153.86 L1602.31 1153.86 C1604.08 1156.92 1605.61 1161.13 1605.80 1166.89 L1605.80 1166.89 C1622.98 1159.00 1625.10 1149.82 1625.48 1147.66 L1625.48 1147.66 C1628.22 1132.19 1607.15 1110.47 1569.44 1100.58 L1569.44 1100.58 C1569.16 1099.22 1568.68 1097.18 1567.89 1094.79 L1567.89 1094.79 C1553.53 1051.30 1484.83 1037.81 1440.28 1029.61 L1440.28 1029.61 C1409.21 1023.88 1398.46 1016.17 1361.88 1017.93 L1361.88 1017.93 C1346.29 984.29 1321.76 935.40 1286.65 879.76 L1286.65 879.76 C1192.09 729.90 1121.76 691.04 1059.33 575.12 L1059.33 575.12 C1032.80 525.85 1000.68 449.64 987.86 341.94 L987.86 341.94 C976.68 389.18 962.24 478.43 986.69 585.66 M1518.52 1105.89 C1511.64 1105.63 1507.04 1102.10 1505.61 1100.92 L1505.61 1100.92 C1504.37 1099.33 1502.97 1097.22 1501.81 1094.57 L1501.81 1094.57 C1499.50 1089.28 1499.27 1084.45 1499.38 1081.54 L1499.38 1081.54 C1501.96 1081.65 1505.67 1082.15 1509.53 1084.09 L1509.53 1084.09 C1513.34 1085.99 1515.44 1088.36 1517.52 1090.37 L1517.52 1090.37 C1520.67 1093.40 1525.55 1097.35 1532.99 1100.96 L1532.99 1100.96 C1531.73 1102.00 1526.71 1105.90 1519.31 1105.90 L1519.31 1105.90 C1519.05 1105.90 1518.79 1105.90 1518.52 1105.89 M1718.58 1264.89 C1707.60 1275.54 1697.04 1289.18 1686.87 1305.80 L1686.87 1305.80 C1676.71 1322.42 1667.27 1341.14 1658.55 1361.95 L1658.55 1361.95 C1649.84 1382.77 1642.17 1403.42 1635.56 1423.91 L1635.56 1423.91 C1632.88 1432.20 1630.46 1440.27 1628.26 1448.14 L1628.26 1448.14 C1628.19 1448.21 1628.12 1448.28 1628.06 1448.36 L1628.06 1448.36 C1623.22 1456.76 1617.25 1466.68 1610.15 1478.13 L1610.15 1478.13 C1603.05 1489.59 1595.63 1500.64 1587.88 1511.29 L1587.88 1511.29 C1580.14 1521.94 1572.47 1531.06 1564.89 1538.64 L1564.89 1538.64 C1557.30 1546.23 1550.77 1550.18 1545.29 1550.50 L1545.29 1550.50 C1542.38 1550.50 1540.28 1549.21 1538.99 1546.63 L1538.99 1546.63 C1537.70 1544.05 1536.97 1540.98 1536.81 1537.43 L1536.81 1537.43 C1536.65 1533.88 1536.73 1530.34 1537.06 1526.78 L1537.06 1526.78 C1537.37 1523.23 1537.70 1520.49 1538.02 1518.55 L1538.02 1518.55 C1542.54 1512.10 1546.65 1505.97 1550.37 1500.15 L1550.37 1500.15 C1554.07 1494.35 1557.22 1488.70 1559.81 1483.21 L1559.81 1483.21 C1564.32 1474.18 1568.11 1465.23 1571.18 1456.35 L1571.18 1456.35 C1574.25 1447.47 1575.94 1439.81 1576.27 1433.35 L1576.27 1433.35 C1576.27 1430.77 1576.10 1428.03 1575.78 1425.12 L1575.78 1425.12 C1575.46 1422.22 1574.65 1419.80 1573.36 1417.86 L1573.36 1417.86 C1568.84 1411.09 1562.79 1406.57 1555.21 1404.31 L1555.21 1404.31 C1547.62 1402.06 1540.28 1403.34 1533.18 1408.18 L1533.18 1408.18 C1532.21 1409.80 1531.25 1411.49 1530.28 1413.26 L1530.28 1413.26 C1529.31 1415.04 1528.34 1416.89 1527.37 1418.83 L1527.37 1418.83 C1516.40 1409.15 1504.30 1404.31 1491.07 1404.31 L1491.07 1404.31 C1477.83 1404.31 1465.57 1408.51 1454.28 1416.89 L1454.28 1416.89 C1442.98 1425.29 1433.14 1435.53 1424.75 1447.63 L1424.75 1447.63 C1416.36 1459.73 1409.67 1472.81 1404.66 1486.84 L1404.66 1486.84 C1399.66 1500.88 1397.00 1513.71 1396.67 1525.33 L1396.67 1525.33 C1396.03 1546.63 1400.31 1562.53 1409.50 1573.01 L1409.50 1573.01 C1418.70 1583.50 1430.23 1588.42 1444.11 1587.77 L1444.11 1587.77 C1453.47 1587.46 1462.75 1584.87 1471.95 1580.03 L1471.95 1580.03 C1481.14 1575.19 1490.26 1569.06 1499.30 1561.63 L1499.30 1561.63 C1501.23 1569.06 1504.54 1575.19 1509.22 1580.03 L1509.22 1580.03 C1513.89 1584.87 1520.91 1587.46 1530.28 1587.77 L1530.28 1587.77 C1540.93 1587.77 1551.89 1583.01 1563.20 1573.49 L1563.20 1573.49 C1574.49 1563.98 1585.30 1552.28 1595.63 1538.40 L1595.63 1538.40 C1602.57 1529.07 1609.17 1519.48 1615.46 1509.64 L1615.46 1509.64 C1614.83 1515.43 1614.50 1520.67 1614.50 1525.33 L1614.50 1525.33 C1614.50 1544.69 1619.34 1560.02 1629.02 1571.31 L1629.02 1571.31 C1638.71 1582.62 1650.64 1588.09 1664.85 1587.77 L1664.85 1587.77 C1677.75 1587.77 1690.34 1582.69 1702.61 1572.53 L1702.61 1572.53 C1714.87 1562.36 1726.32 1550.34 1736.97 1536.46 L1736.97 1536.46 C1739.60 1533.04 1742.16 1529.59 1744.66 1526.11 L1744.66 1526.11 C1745.28 1532.37 1746.58 1538.41 1748.59 1544.21 L1748.59 1544.21 C1751.49 1552.60 1755.85 1560.02 1761.66 1566.47 L1761.66 1566.47 C1767.46 1572.93 1774.64 1578.09 1783.20 1581.97 L1783.20 1581.97 C1791.74 1585.84 1801.83 1587.77 1813.45 1587.77 L1813.45 1587.77 C1830.88 1587.77 1846.93 1584.14 1861.62 1576.88 L1861.62 1576.88 C1876.30 1569.62 1889.93 1560.26 1902.52 1548.80 L1902.52 1548.80 C1910.05 1541.95 1917.14 1534.60 1923.80 1526.76 L1923.80 1526.76 C1923.63 1536.81 1924.84 1545.62 1927.45 1553.16 L1927.45 1553.16 C1930.20 1561.07 1933.99 1567.61 1938.83 1572.77 L1938.83 1572.77 C1943.67 1577.93 1949.32 1581.81 1955.77 1584.38 L1955.77 1584.38 C1962.22 1586.97 1968.84 1588.09 1975.62 1587.77 L1975.62 1587.77 C1989.17 1587.46 2001.67 1584.07 2013.13 1577.61 L2013.13 1577.61 C2024.58 1571.16 2034.67 1562.93 2043.39 1552.92 L2043.39 1552.92 C2052.10 1542.92 2059.20 1531.70 2064.69 1519.28 L2064.69 1519.28 C2070.17 1506.86 2073.88 1494.35 2075.82 1481.76 L2075.82 1481.76 C2085.18 1481.12 2094.05 1479.58 2102.44 1477.16 L2102.44 1477.16 C2104.54 1476.56 2106.64 1475.86 2108.75 1475.07 L2108.75 1475.07 C2108.27 1476.97 2107.78 1478.87 2107.28 1480.79 L2107.28 1480.79 C2105.34 1488.86 2103.33 1496.69 2101.23 1504.27 L2101.23 1504.27 C2099.13 1511.86 2097.20 1518.63 2095.42 1524.60 L2095.42 1524.60 C2093.65 1530.58 2092.11 1535.42 2090.82 1539.12 L2090.82 1539.12 C2089.53 1542.84 2088.89 1545.01 2088.89 1545.66 L2088.89 1545.66 C2087.27 1550.18 2086.63 1554.78 2086.95 1559.45 L2086.95 1559.45 C2087.27 1564.14 2088.57 1568.41 2090.82 1572.28 L2090.82 1572.28 C2093.08 1576.15 2096.23 1579.23 2100.26 1581.48 L2100.26 1581.48 C2104.30 1583.74 2109.22 1584.87 2115.02 1584.87 L2115.02 1584.87 C2120.83 1584.87 2125.75 1582.69 2129.79 1578.33 L2129.79 1578.33 C2133.82 1573.98 2137.21 1568.82 2139.95 1562.84 L2139.95 1562.84 C2142.69 1556.88 2144.95 1550.50 2146.73 1543.72 L2146.73 1543.72 C2148.50 1536.95 2150.20 1530.98 2151.81 1525.81 L2151.81 1525.81 C2155.69 1520.33 2160.77 1513.23 2167.06 1504.51 L2167.06 1504.51 C2173.36 1495.80 2179.89 1487.25 2186.67 1478.86 L2186.67 1478.86 C2193.45 1470.47 2199.74 1463.21 2205.55 1457.07 L2205.55 1457.07 C2211.36 1450.95 2215.55 1447.88 2218.13 1447.88 L2218.13 1447.88 C2219.74 1447.88 2220.55 1449.33 2220.55 1452.23 L2220.55 1452.23 C2220.55 1456.76 2218.93 1462.48 2215.71 1469.42 L2215.71 1469.42 C2212.48 1476.36 2209.01 1483.78 2205.30 1491.68 L2205.30 1491.68 C2201.59 1499.60 2198.12 1507.98 2194.90 1516.86 L2194.90 1516.86 C2191.67 1525.74 2190.06 1534.37 2190.06 1542.75 L2190.06 1542.75 C2190.06 1555.67 2193.84 1566.47 2201.43 1575.19 L2201.43 1575.19 C2209.01 1583.90 2220.07 1588.09 2234.59 1587.77 L2234.59 1587.77 C2247.49 1587.77 2260.01 1582.69 2272.11 1572.53 L2272.11 1572.53 C2284.21 1562.36 2295.59 1550.34 2306.24 1536.46 L2306.24 1536.46 C2316.88 1522.59 2326.57 1508.23 2335.28 1493.38 L2335.28 1493.38 C2340.89 1483.82 2345.90 1475.33 2350.31 1467.91 L2350.31 1467.91 C2352.09 1470.43 2353.93 1472.95 2355.85 1475.47 L2355.85 1475.47 C2360.53 1481.60 2365.13 1487.74 2369.65 1493.86 L2369.65 1493.86 C2363.84 1496.77 2357.95 1500.08 2351.98 1503.79 L2351.98 1503.79 C2346.01 1507.50 2340.76 1511.53 2336.25 1515.89 L2336.25 1515.89 C2331.73 1520.24 2328.10 1524.93 2325.36 1529.93 L2325.36 1529.93 C2322.62 1534.93 2321.24 1540.33 2321.24 1546.14 L2321.24 1546.14 C2321.24 1552.92 2323.02 1558.97 2326.57 1564.30 L2326.57 1564.30 C2330.12 1569.62 2334.55 1574.06 2339.88 1577.61 L2339.88 1577.61 C2345.20 1581.16 2351.17 1583.74 2357.79 1585.35 L2357.79 1585.35 C2364.40 1586.97 2370.93 1587.77 2377.39 1587.77 L2377.39 1587.77 C2385.46 1587.77 2393.45 1586.49 2401.36 1583.90 L2401.36 1583.90 C2409.26 1581.32 2416.28 1577.69 2422.41 1573.01 L2422.41 1573.01 C2428.54 1568.34 2433.46 1562.53 2437.18 1555.58 L2437.18 1555.58 C2440.88 1548.65 2442.58 1540.66 2442.26 1531.62 L2442.26 1531.62 C2441.94 1524.53 2440.57 1517.91 2438.15 1511.77 L2438.15 1511.77 C2435.73 1505.65 2432.58 1499.67 2428.71 1493.86 L2428.71 1493.86 C2434.19 1491.93 2439.60 1489.99 2444.92 1488.05 L2444.92 1488.05 C2450.25 1486.12 2455.49 1483.86 2460.66 1481.28 L2460.66 1481.28 C2466.78 1478.70 2472.59 1476.03 2478.08 1473.29 L2478.08 1473.29 C2483.57 1470.55 2488.57 1467.89 2493.09 1465.30 L2493.09 1465.30 C2494.37 1464.33 2494.86 1462.72 2494.54 1460.46 L2494.54 1460.46 C2494.22 1458.21 2493.41 1455.95 2492.12 1453.68 L2492.12 1453.68 C2490.83 1451.43 2489.13 1449.65 2487.04 1448.36 L2487.04 1448.36 C2484.93 1447.07 2482.76 1447.07 2480.50 1448.36 L2480.50 1448.36 C2476.95 1450.95 2472.76 1453.37 2467.92 1455.62 L2467.92 1455.62 C2463.08 1457.88 2457.91 1460.30 2452.43 1462.88 L2452.43 1462.88 C2445.97 1465.79 2439.60 1468.29 2433.31 1470.38 L2433.31 1470.38 C2427.01 1472.49 2420.96 1474.67 2415.15 1476.92 L2415.15 1476.92 C2409.34 1470.47 2403.29 1464.09 2397.00 1457.80 L2397.00 1457.80 C2390.71 1451.51 2385.30 1445.30 2380.78 1439.16 L2380.78 1439.16 C2384.66 1432.71 2388.04 1425.93 2390.95 1418.83 L2390.95 1418.83 C2393.85 1411.74 2395.31 1404.47 2395.31 1397.05 L2395.31 1397.05 C2395.31 1391.24 2394.01 1386.16 2391.43 1381.80 L2391.43 1381.80 C2388.85 1377.44 2384.17 1375.26 2377.39 1375.26 L2377.39 1375.26 C2371.59 1375.26 2366.02 1377.13 2360.69 1380.83 L2360.69 1380.83 C2355.37 1384.55 2350.53 1389.06 2346.17 1394.38 L2346.17 1394.38 C2341.81 1399.71 2338.43 1405.60 2336.01 1412.05 L2336.01 1412.05 C2333.59 1418.51 2332.38 1424.32 2332.38 1429.48 L2332.38 1429.48 C2332.38 1434.00 2333.27 1438.36 2335.04 1442.55 L2335.04 1442.55 C2335.79 1444.33 2336.72 1446.24 2337.79 1448.26 L2337.79 1448.26 C2337.76 1448.29 2337.73 1448.32 2337.70 1448.36 L2337.70 1448.36 C2334.47 1453.85 2329.47 1462.15 2322.69 1473.29 L2322.69 1473.29 C2315.92 1484.42 2308.49 1495.64 2300.43 1506.93 L2300.43 1506.93 C2292.36 1518.23 2284.13 1528.07 2275.74 1536.46 L2275.74 1536.46 C2267.34 1544.86 2259.92 1549.05 2253.47 1549.05 L2253.47 1549.05 C2246.69 1549.05 2243.30 1545.99 2243.30 1539.85 L2243.30 1539.85 C2242.98 1534.37 2244.76 1527.43 2248.63 1519.03 L2248.63 1519.03 C2252.50 1510.65 2256.86 1501.61 2261.70 1491.93 L2261.70 1491.93 C2266.54 1482.24 2270.90 1472.40 2274.77 1462.40 L2274.77 1462.40 C2278.64 1452.40 2280.58 1442.88 2280.58 1433.84 L2280.58 1433.84 C2280.58 1424.15 2277.75 1416.41 2272.11 1410.60 L2272.11 1410.60 C2266.46 1404.79 2258.95 1401.73 2249.60 1401.40 L2249.60 1401.40 C2242.49 1401.40 2235.32 1403.27 2228.06 1406.97 L2228.06 1406.97 C2220.80 1410.68 2213.69 1415.61 2206.76 1421.73 L2206.76 1421.73 C2199.81 1427.87 2192.96 1434.97 2186.18 1443.04 L2186.18 1443.04 C2179.41 1451.11 2172.95 1459.18 2166.82 1467.24 L2166.82 1467.24 C2169.40 1453.04 2171.42 1440.21 2172.87 1428.75 L2172.87 1428.75 C2174.32 1417.30 2174.24 1409.32 2172.63 1404.79 L2172.63 1404.79 C2169.72 1401.57 2165.85 1399.63 2161.01 1398.98 L2161.01 1398.98 C2156.17 1398.34 2151.16 1398.74 2146.01 1400.19 L2146.01 1400.19 C2140.84 1401.65 2136.00 1404.15 2131.48 1407.70 L2131.48 1407.70 C2126.96 1411.25 2123.25 1415.44 2120.35 1420.28 L2120.35 1420.28 C2120.35 1420.93 2120.11 1423.03 2119.62 1426.58 L2119.62 1426.58 C2119.14 1430.13 2118.25 1434.65 2116.96 1440.13 L2116.96 1440.13 C2116.33 1442.79 2115.67 1445.65 2114.97 1448.69 L2114.97 1448.69 C2108.39 1452.71 2102.03 1455.59 2095.91 1457.32 L2095.91 1457.32 C2089.62 1459.09 2082.76 1460.30 2075.34 1460.95 L2075.34 1460.95 C2074.68 1452.88 2072.91 1445.38 2070.01 1438.44 L2070.01 1438.44 C2067.11 1431.50 2063.23 1425.45 2058.39 1420.28 L2058.39 1420.28 C2053.55 1415.13 2047.66 1411.09 2040.72 1408.18 L2040.72 1408.18 C2033.78 1405.28 2026.28 1403.82 2018.21 1403.82 L2018.21 1403.82 C2004.98 1403.82 1992.72 1408.02 1981.42 1416.41 L1981.42 1416.41 C1970.13 1424.81 1960.28 1435.13 1951.90 1447.39 L1951.90 1447.39 C1947.85 1453.31 1944.20 1459.45 1940.94 1465.78 L1940.94 1465.78 C1935.55 1474.18 1929.85 1482.57 1923.82 1490.96 L1923.82 1490.96 C1916.39 1501.29 1908.25 1510.56 1899.38 1518.79 L1899.38 1518.79 C1890.49 1527.02 1880.65 1533.72 1869.85 1538.88 L1869.85 1538.88 C1859.03 1544.05 1847.17 1546.63 1834.27 1546.63 L1834.27 1546.63 C1823.29 1546.63 1814.90 1543.72 1809.09 1537.91 L1809.09 1537.91 C1803.29 1532.11 1799.41 1524.84 1797.48 1516.13 L1797.48 1516.13 C1795.54 1507.42 1795.54 1497.98 1797.48 1487.81 L1797.48 1487.81 C1799.41 1477.65 1802.64 1468.29 1807.16 1459.73 L1807.16 1459.73 C1811.67 1451.19 1817.32 1444.09 1824.10 1438.44 L1824.10 1438.44 C1830.88 1432.79 1838.14 1429.96 1845.88 1429.96 L1845.88 1429.96 C1849.11 1430.29 1851.85 1431.26 1854.11 1432.87 L1854.11 1432.87 C1856.37 1434.49 1857.82 1437.55 1858.47 1442.07 L1858.47 1442.07 C1859.44 1446.59 1862.59 1448.84 1867.91 1448.84 L1867.91 1448.84 C1873.23 1448.84 1879.04 1448.04 1885.34 1446.42 L1885.34 1446.42 C1891.63 1444.81 1897.36 1442.79 1902.52 1440.37 L1902.52 1440.37 C1907.68 1437.95 1910.58 1436.58 1911.23 1436.26 L1911.23 1436.26 C1911.23 1429.16 1909.46 1423.27 1905.91 1418.59 L1905.91 1418.59 C1902.36 1413.91 1897.92 1410.12 1892.60 1407.21 L1892.60 1407.21 C1887.27 1404.31 1881.38 1402.21 1874.93 1400.92 L1874.93 1400.92 C1868.47 1399.63 1862.34 1398.98 1856.53 1398.98 L1856.53 1398.98 C1842.01 1398.98 1827.89 1402.37 1814.18 1409.15 L1814.18 1409.15 C1800.46 1415.93 1788.44 1424.96 1778.11 1436.26 L1778.11 1436.26 C1774.84 1439.85 1771.79 1443.59 1768.91 1447.47 L1768.91 1447.47 C1768.54 1447.72 1768.22 1448.01 1767.95 1448.36 L1767.95 1448.36 C1767.50 1449.13 1767.01 1449.96 1766.48 1450.85 L1766.48 1450.85 C1762.98 1455.89 1759.80 1461.18 1756.95 1466.70 L1756.95 1466.70 C1755.69 1468.78 1754.36 1470.97 1752.95 1473.29 L1752.95 1473.29 C1746.17 1484.42 1738.74 1495.64 1730.68 1506.93 L1730.68 1506.93 C1722.61 1518.23 1714.38 1528.07 1705.99 1536.46 L1705.99 1536.46 C1697.60 1544.86 1690.18 1549.05 1683.72 1549.05 L1683.72 1549.05 C1678.23 1549.05 1674.36 1545.99 1672.11 1539.85 L1672.11 1539.85 C1669.85 1533.72 1668.72 1527.43 1668.72 1520.97 L1668.72 1520.97 C1668.72 1513.88 1669.28 1506.37 1670.41 1498.46 L1670.41 1498.46 C1671.54 1490.56 1672.99 1482.97 1674.77 1475.71 L1674.77 1475.71 C1676.54 1468.45 1678.23 1462.00 1679.85 1456.35 L1679.85 1456.35 C1681.46 1450.70 1682.59 1446.59 1683.24 1444.00 L1683.24 1444.00 C1693.57 1438.52 1703.89 1430.21 1714.22 1419.07 L1714.22 1419.07 C1724.55 1407.94 1733.90 1395.92 1742.30 1383.01 L1742.30 1383.01 C1746.17 1377.20 1750.29 1370.18 1754.64 1361.95 L1754.64 1361.95 C1759.00 1353.72 1763.11 1345.09 1766.99 1336.05 L1766.99 1336.05 C1770.86 1327.02 1774.01 1317.98 1776.42 1308.94 L1776.42 1308.94 C1778.85 1299.91 1780.06 1291.52 1780.06 1283.77 L1780.06 1283.77 C1780.06 1274.74 1777.71 1266.67 1773.04 1259.57 L1773.04 1259.57 C1768.36 1252.47 1761.18 1248.92 1751.50 1248.92 L1751.50 1248.92 C1740.52 1248.92 1729.55 1254.24 1718.58 1264.89 M1701.15 1390.75 C1702.44 1387.53 1704.94 1381.64 1708.65 1373.09 L1708.65 1373.09 C1712.36 1364.54 1716.64 1355.66 1721.48 1346.46 L1721.48 1346.46 C1726.32 1337.26 1731.32 1329.12 1736.49 1322.02 L1736.49 1322.02 C1741.65 1314.92 1746.17 1311.37 1750.04 1311.37 L1750.04 1311.37 C1751.33 1311.37 1751.98 1312.33 1751.98 1314.27 L1751.98 1314.27 C1751.98 1317.83 1751.01 1322.26 1749.08 1327.58 L1749.08 1327.58 C1747.14 1332.91 1744.72 1338.32 1741.81 1343.80 L1741.81 1343.80 C1738.91 1349.29 1735.84 1354.62 1732.62 1359.77 L1732.62 1359.77 C1729.39 1364.94 1726.81 1368.97 1724.87 1371.88 L1724.87 1371.88 C1720.35 1378.98 1715.43 1385.76 1710.11 1392.21 L1710.11 1392.21 C1704.78 1398.67 1699.38 1404.63 1693.89 1410.12 L1693.89 1410.12 Z M2033.70 1455.14 C2028.54 1452.56 2025.96 1448.53 2025.96 1443.04 L2025.96 1443.04 C2025.96 1439.16 2027.57 1437.23 2030.80 1437.23 L2030.80 1437.23 C2036.61 1436.91 2040.88 1439.40 2043.63 1444.73 L2043.63 1444.73 C2046.37 1450.05 2048.06 1455.14 2048.71 1459.98 L2048.71 1459.98 C2043.87 1459.33 2038.86 1457.72 2033.70 1455.14 M1453.31 1540.58 C1449.44 1535.25 1447.66 1527.26 1447.99 1516.61 L1447.99 1516.61 C1447.99 1508.55 1449.36 1500.08 1452.10 1491.20 L1452.10 1491.20 C1454.84 1482.33 1458.63 1474.18 1463.48 1466.75 L1463.48 1466.75 C1468.32 1459.33 1473.96 1453.20 1480.42 1448.36 L1480.42 1448.36 C1486.87 1443.52 1493.81 1441.10 1501.23 1441.10 L1501.23 1441.10 C1506.07 1441.10 1510.91 1442.55 1515.76 1445.45 L1515.76 1445.45 L1507.04 1469.66 C1503.81 1479.99 1501.15 1490.56 1499.06 1501.37 L1499.06 1501.37 C1496.95 1512.18 1495.91 1522.91 1495.91 1533.56 L1495.91 1533.56 C1491.71 1538.08 1487.36 1541.63 1482.84 1544.21 L1482.84 1544.21 C1478.32 1546.79 1473.64 1548.24 1468.80 1548.56 L1468.80 1548.56 C1462.34 1548.56 1457.18 1545.90 1453.31 1540.58 M1982.63 1541.02 C1977.31 1535.67 1974.81 1527.64 1975.13 1516.93 L1975.13 1516.93 C1975.45 1506.87 1977.63 1496.33 1981.67 1485.30 L1981.67 1485.30 C1985.70 1474.27 1991.11 1464.86 1997.88 1457.07 L1997.88 1457.07 C2002.72 1467.41 2010.23 1474.34 2020.39 1477.89 L2020.39 1477.89 C2030.56 1481.44 2040.80 1483.54 2051.13 1484.18 L2051.13 1484.18 C2049.84 1491.34 2047.74 1498.73 2044.84 1506.37 L2044.84 1506.37 C2041.93 1514.01 2038.30 1520.93 2033.95 1527.10 L2033.95 1527.10 C2029.59 1533.28 2024.58 1538.40 2018.94 1542.47 L2018.94 1542.47 C2013.29 1546.54 2007.08 1548.73 2000.30 1549.05 L2000.30 1549.05 C1993.85 1549.05 1987.96 1546.38 1982.63 1541.02 M2359.00 1546.87 C2355.44 1544.45 2353.83 1541.14 2354.16 1536.95 L2354.16 1536.95 C2354.16 1532.43 2356.90 1527.99 2362.39 1523.63 L2362.39 1523.63 C2367.87 1519.28 2374.01 1515.33 2380.78 1511.77 L2380.78 1511.77 C2385.30 1519.84 2387.56 1526.95 2387.56 1533.07 L2387.56 1533.07 C2387.88 1539.21 2386.35 1543.56 2382.96 1546.14 L2382.96 1546.14 C2379.57 1548.73 2375.62 1550.18 2371.10 1550.50 L2371.10 1550.50 C2366.58 1550.50 2362.55 1549.29 2359.00 1546.87 M708.99 1424.61 C688.73 1458.33 665.71 1509.15 657.43 1579.28 L657.43 1579.28 C687.12 1548.03 716.80 1516.78 746.49 1485.54 L746.49 1485.54 C748.20 1501.65 751.09 1519.81 755.86 1539.44 L755.86 1539.44 C761.54 1562.81 768.66 1583.21 775.78 1600.37 L775.78 1600.37 C776.42 1586.91 779.49 1560.52 795.70 1532.41 L795.70 1532.41 C810.86 1506.10 830.40 1490.68 841.39 1483.20 L841.39 1483.20 C843.55 1500.20 849.37 1528.75 867.17 1559.36 L867.17 1559.36 C885.90 1591.56 909.30 1611.25 923.41 1621.46 L923.41 1621.46 C921.76 1604.42 921.19 1582.37 924.59 1557.01 L924.59 1557.01 C927.88 1532.41 933.95 1511.81 939.82 1496.08 L939.82 1496.08 C944.97 1514.63 956.49 1546.61 983.17 1578.11 L983.17 1578.11 C1005.41 1604.36 1029.38 1619.89 1045.27 1628.49 L1045.27 1628.49 C983.38 1532.39 978.55 1414.33 1033.56 1326.19 L1033.56 1326.19 C1084.04 1245.28 1166.46 1219.21 1190.57 1212.53 L1190.57 1212.53 C1187.95 1212.40 1181.17 1212.14 1171.02 1212.14 L1171.02 1212.14 C1094.69 1212.14 827.78 1226.87 708.99 1424.61 M2456.06 1650.46 C2363.20 1778.68 2147.14 1735.26 1427.45 1690.66 L1427.45 1690.66 C1162.64 1674.26 974.00 1666.64 741.05 1739.29 L741.05 1739.29 C628.92 1774.26 540.85 1817.13 482.69 1848.78 L482.69 1848.78 C541.43 1851.01 660.55 1863.38 787.51 1936.50 L787.51 1936.50 C915.58 2010.26 986.29 2108.21 1017.56 2158.06 L1017.56 2158.06 C1058.81 2102.42 1125.69 2027.36 1226.48 1970.20 L1226.48 1970.20 C1320.85 1916.68 1407.57 1900.07 1747.98 1884.38 L1747.98 1884.38 C2068.06 1869.62 2252.63 1872.27 2396.58 1772.67 L2396.58 1772.67 C2475.89 1717.80 2498.87 1662.32 2507.25 1635.45 L2507.25 1635.45 C2532.20 1555.41 2504.43 1482.54 2491.82 1454.27 L2491.82 1454.27 C2500.68 1518.06 2498.33 1592.10 2456.06 1650.46"></path>
</svg>